<mxfile host="app.diagrams.net" modified="2024-01-10T08:09:17.944Z" agent="Mozilla/5.0 (Windows NT 10.0; Win64; x64) AppleWebKit/537.36 (KHTML, like Gecko) Chrome/118.0.0.0 Safari/537.36" version="22.1.18" etag="W8BhK47nZ6CFRwRjBiRB" type="github">
  <diagram name="第 1 页" id="igKIiFGssUgVa1NH7gj5">
    <mxGraphModel>
      <root>
        <mxCell id="0" />
        <mxCell id="1" parent="0" />
      </root>
    </mxGraphModel>
  </diagram>
</mxfile>
